<svg width="500" height="500" viewBox="0 0 500 500" fill="white" xmlns="http://www.w3.org/2000/svg">
<path d="M273.512 286.825C265.858 298.49 258.738 310.588 250.416 321.719C230.592 348.24 205.974 368.325 173.933 376.45C133.023 386.83 96.1115 375.838 63.0559 350.563C29.0054 324.517 6.83756 290.157 1.03968 246.14C-2.53854 218.948 3.13496 193.267 17.821 170.217C38.0274 138.467 67.8111 119.823 101.967 106.934L99.2113 110.138L95.9297 112.904C70.8247 134.523 51.6228 160.075 44.562 193.95C32.1052 253.682 68.1937 308.761 119.829 325.544C162.95 339.561 202.732 329.192 240.446 306.557C251.124 300.14 261.102 292.469 271.406 285.384L273.512 286.825Z" fill="current" stroke="current"/>
<path d="M224.869 219.611C246.751 169.307 277.509 128.257 333.671 117.392C365.713 111.194 396.061 119.063 423.767 136.282C460.841 159.344 486.903 191.459 496.873 235.89C505.713 275.311 495.505 309.748 470.121 339.73C451.743 361.415 428.667 376.461 402.873 388.44C412.287 378.053 421.873 368.592 430.215 358.044C448.021 335.517 458.669 309.698 458.957 280.282C459.493 226.194 422.275 178.973 371.023 167.736C325.423 157.742 285.977 173.005 249.381 199.555C240.867 205.732 233.031 212.898 224.869 219.611Z" fill="current" stroke="current"/>
<path d="M213.361 287.636C177.511 271.525 146.723 251.627 126.354 218.206C96.9436 169.919 102.426 107.942 139.471 60.0415C155.267 39.6198 173.809 22.7071 197.029 12.1602C242.971 -8.69648 285.651 -2.94357 323.961 31.1189C343.659 48.6446 357.657 70.6675 369.569 95.5177C357.791 85.1881 347.449 74.9377 336.005 66.2788C290.225 31.6527 234.073 33.2244 192.781 71.32C162.93 98.8784 151.66 134.542 156.271 175.485C160.893 216.704 181.09 249.867 207.371 279.777C208.711 281.29 210.079 282.763 211.389 284.286C211.763 284.729 211.993 285.294 213.361 287.636Z" fill="current" stroke="current"/>
<path d="M293.594 217.04C341.124 241.08 379.778 273.64 388.99 331.061C394.77 367.119 385.096 400.548 365.024 430.342C340.666 466.501 308.394 491.123 265.494 498.388C242.082 502.351 219.456 499.109 198.168 487.544C162.232 468.042 141.844 435.363 124.91 396.586C136.276 407.884 145.432 418.123 155.717 426.982C177.55 445.84 202.664 456.99 231.5 457.148C283.576 457.415 328.946 419.488 340.13 366.99C349.688 322.084 336.81 282.398 313.57 245.221C307.466 235.446 300.272 226.4 293.594 217.04Z" fill="current" stroke="current"/>
</svg>
